<?xml version="1.0" encoding="UTF-8" standalone="no"?>
<svg
   xmlns:dc="http://purl.org/dc/elements/1.1/"
   xmlns:cc="http://creativecommons.org/ns#"
   xmlns:rdf="http://www.w3.org/1999/02/22-rdf-syntax-ns#"
   xmlns:svg="http://www.w3.org/2000/svg"
   xmlns="http://www.w3.org/2000/svg"
   xmlns:xlink="http://www.w3.org/1999/xlink"
   xmlns:sodipodi="http://sodipodi.sourceforge.net/DTD/sodipodi-0.dtd"
   xmlns:inkscape="http://www.inkscape.org/namespaces/inkscape"
   version="1.1"
   x="0px"
   y="0px"
   width="40"
   height="40"
   viewBox="0 0 73.259734 73.259733"
   enable-background="new 0 0 274.724 274.724"
   xml:space="preserve"
   id="svg46"
   sodipodi:docname="pyta_logo.svg"
   inkscape:version="1.0.2-2 (e86c870879, 2021-01-15)"><metadata
   id="metadata52"><rdf:RDF><cc:Work
       rdf:about=""><dc:format>image/svg+xml</dc:format><dc:type
         rdf:resource="http://purl.org/dc/dcmitype/StillImage" /><dc:title></dc:title></cc:Work></rdf:RDF></metadata><defs
   id="defs50" /><sodipodi:namedview
   pagecolor="#ffffff"
   bordercolor="#666666"
   borderopacity="1"
   objecttolerance="10"
   gridtolerance="10"
   guidetolerance="10"
   inkscape:pageopacity="0"
   inkscape:pageshadow="2"
   inkscape:window-width="1368"
   inkscape:window-height="890"
   id="namedview48"
   showgrid="false"
   fit-margin-top="2"
   fit-margin-left="2"
   fit-margin-right="2"
   fit-margin-bottom="2"
   inkscape:zoom="4.5333333"
   inkscape:cx="76.429223"
   inkscape:cy="55.487879"
   inkscape:window-x="-6"
   inkscape:window-y="-6"
   inkscape:window-maximized="1"
   inkscape:current-layer="svg46"
   inkscape:pagecheckerboard="false" />
<g
   id="original"
   transform="matrix(0.24184057,0,0,0.24033604,3.4101726,3.6170542)">
	<radialGradient
   id="SVGID_20_"
   cx="137.3623"
   cy="137.3623"
   r="125.7495"
   gradientUnits="userSpaceOnUse">
		<stop
   offset="0"
   style="stop-color:#6EDBE4"
   id="stop2" />
		<stop
   offset="0.2379"
   style="stop-color:#66D6E3"
   id="stop4" />
		<stop
   offset="0.6036"
   style="stop-color:#51C6DF"
   id="stop6" />
		<stop
   offset="1"
   style="stop-color:#32B1D9"
   id="stop8" />
	</radialGradient>
	<path
   fill="url(#SVGID_20_)"
   d="m 137.712,194.87 h 94.201 c 14.349,0 19.883,-9.061 26.205,-28.098 6.106,-18.318 6.072,-35.936 -0.117,-60.812 -4.755,-19.154 -12.8,-27.693 -26.088,-27.693 h -31.425 c -0.039,0 -0.076,-0.006 -0.115,-0.006 -0.308,0.053 -0.622,0.086 -0.945,0.086 -3.037,0 -5.5,-2.463 -5.5,-5.5 V 40.909 c 0,-14.949 -13.497,-25.021 -26.829,-27.244 -10.09,-1.68 -21.071,-2.514 -31.812,-2.49 -10.139,0.049 -20.202,0.906 -29.101,2.48 -24.231,4.281 -26.884,11.957 -26.884,27.254 v 26.438 h 57.35 c 3.038,0 5.5,2.463 5.5,5.5 0,3.037 -2.462,5.5 -5.5,5.5 H 50.215 c -17.09,0 -29.768,10.336 -33.915,27.646 -5.663,23.5 -5.663,37.82 -0.002,61.305 3.03,12.617 10.355,27.652 28.057,27.652 h 29.447 c 0.039,0 0.076,0.006 0.115,0.006 0.308,-0.053 0.622,-0.086 0.945,-0.086 3.038,0 5.5,2.463 5.5,5.5 v 31.938 c 0,16.166 17.215,23.645 27.477,26.662 20.777,6.109 38.629,6.107 59.692,-0.006 18.22,-5.275 27.457,-14.244 27.457,-26.656 V 205.87 h -57.276 c -3.037,0 -5.5,-2.463 -5.5,-5.5 0,-3.037 2.463,-5.5 5.5,-5.5 z M 105.387,51.81 c -6.077,0 -10.999,-4.904 -10.999,-10.967 0,-6.086 4.922,-11.033 10.999,-11.033 6.056,0 11.001,4.947 11.001,11.033 0,6.062 -4.945,10.967 -11.001,10.967 z m 64.601,168.5 c 6.056,0 11,4.947 11,11.033 0,6.062 -4.944,10.967 -11,10.967 -6.078,0 -11,-4.904 -11,-10.967 0,-6.086 4.922,-11.033 11,-11.033 z"
   id="path11"
   style="fill:url(#SVGID_20_)" />
	<g
   id="g25">
		<g
   id="g23">
			<g
   id="g21">
				<path
   fill="#ffffff"
   d="m 42.107,102.762 h 17.447 c 8.874,0 15.257,1.58 19.148,4.738 3.892,3.16 5.837,8.287 5.837,15.38 0,7.094 -1.945,12.22 -5.837,15.379 -3.892,3.16 -10.274,4.739 -19.148,4.739 h -4.739 v 24.081 H 42.107 Z m 12.708,10.683 v 18.868 h 5.213 c 4.164,0 7.087,-0.702 8.767,-2.11 1.68,-1.406 2.521,-3.848 2.521,-7.323 0,-3.475 -0.841,-5.916 -2.521,-7.323 -1.68,-1.407 -4.603,-2.111 -8.767,-2.111 h -5.213 z"
   id="path13" />
				<path
   fill="#ffffff"
   d="m 120.372,172.291 c -1.694,4.538 -3.726,7.848 -6.096,9.931 -2.369,2.082 -5.248,3.123 -8.637,3.123 H 95.213 v -9.606 h 5.127 c 2.585,0 4.48,-0.439 5.687,-1.314 1.206,-0.876 2.427,-2.907 3.661,-6.096 l 0.948,-2.585 -18.352,-40.925 h 13.268 l 11.029,26.05 10.554,-26.05 h 13.269 z"
   id="path15" />
				<path
   fill="#ffffff"
   d="m 169.78,167.079 h -12.708 v -53.202 h -17.768 v -11.115 h 48.243 v 11.115 H 169.78 Z"
   id="path17" />
				<path
   fill="#ffffff"
   d="m 204.273,102.762 h 15.552 l 17.36,64.317 h -12.708 l -3.963,-15.896 h -17.017 l -3.877,15.896 h -12.709 z m 7.754,11.632 -5.988,26.321 h 12.02 z"
   id="path19" />
			</g>
		</g>
	</g>
	<g
   id="g43">
		<g
   id="g33">
			<defs
   id="defs28">
				<path
   id="SVGID_41_"
   d="M 263.383,104.649 C 258.869,86.465 250.247,72.784 231.958,72.784 H 200.533 V 40.847 c 0,-17.031 -14.368,-29.826 -31.425,-32.67 C 158.311,6.38 147.109,5.562 136.365,5.613 125.62,5.664 115.36,6.58 106.332,8.177 79.736,12.876 74.907,22.71 74.907,40.847 V 72.785 H 51.321 c -18.266,0 -34.26,10.979 -39.264,31.865 -5.77,23.939 -6.026,38.877 0,63.875 4.468,18.607 15.137,31.863 33.403,31.863 h 29.447 v 31.938 c 0,17.033 14.811,27.053 31.425,31.939 19.895,5.85 38.973,6.908 62.776,0 15.822,-4.582 31.425,-13.803 31.425,-31.939 v -31.938 h 31.425 c 18.266,0 25.073,-12.74 31.425,-31.863 6.563,-19.688 6.284,-38.62 0,-63.876 z" />
			</defs>
			<clipPath
   id="SVGID_42_">
				<use
   xlink:href="#SVGID_41_"
   overflow="visible"
   id="use30"
   x="0"
   y="0"
   width="100%"
   height="100%" />
			</clipPath>
		</g>
		<g
   id="g41">
			<path
   fill="#002a5c"
   d="M 268.72,103.323 C 262.7,79.073 250.675,67.284 231.957,67.284 H 204.972 V 40.927 C 204.972,22.333 189.824,6.312 168.951,2.831 158.256,1.052 146.611,0.159 135.279,0.192 124.525,0.243 113.817,1.159 104.314,2.84 74.232,8.156 68.346,20.83 68.346,40.926 V 67.364 H 50.259 c -22.186,0 -39.28,13.826 -44.61,36.076 -6.138,25.467 -6.138,40.994 -0.001,66.449 5.586,23.266 19.349,36.078 38.751,36.078 h 25.008 v 26.357 c 0,17.289 12.562,30.506 35.374,37.215 11.319,3.33 22.058,4.994 32.832,4.992 10.768,0 21.572,-1.662 33.025,-4.984 29.254,-8.473 35.395,-24.918 35.395,-37.223 v -26.438 h 25.925 c 22.895,0 30.656,-17.602 36.643,-35.625 6.732,-20.196 6.768,-40.215 0.119,-66.938 z m -10.557,63.467 c -6.322,19.037 -11.856,28.098 -26.205,28.098 h -94.201 c -3.037,0 -5.5,2.463 -5.5,5.5 0,3.037 2.463,5.5 5.5,5.5 h 57.276 v 26.438 c 0,12.412 -9.237,21.381 -27.457,26.656 -21.063,6.113 -38.915,6.115 -59.692,0.006 C 97.622,255.97 80.407,248.492 80.407,232.326 v -31.938 c 0,-3.037 -2.462,-5.5 -5.5,-5.5 -0.323,0 -0.638,0.033 -0.945,0.086 -0.039,0 -0.076,-0.006 -0.115,-0.006 H 44.399 c -17.701,0 -25.026,-15.035 -28.057,-27.652 -5.661,-23.484 -5.661,-37.805 0.002,-61.305 C 20.492,88.7 33.169,78.364 50.259,78.364 h 86.437 c 3.038,0 5.5,-2.463 5.5,-5.5 0,-3.037 -2.462,-5.5 -5.5,-5.5 H 79.346 V 40.927 c 0,-15.297 2.652,-22.973 26.884,-27.254 8.898,-1.574 18.962,-2.432 29.101,-2.48 10.741,-0.023 21.723,0.811 31.812,2.49 13.332,2.223 26.829,12.295 26.829,27.244 v 31.938 c 0,3.037 2.463,5.5 5.5,5.5 0.323,0 0.638,-0.033 0.945,-0.086 0.039,0 0.076,0.006 0.115,0.006 h 31.425 c 13.288,0 21.333,8.539 26.088,27.693 6.19,24.876 6.224,42.494 0.118,60.812 z"
   id="path35" />
			<path
   fill="#002a5c"
   d="m 105.431,29.827 c -6.077,0 -10.999,4.947 -10.999,11.033 0,6.062 4.922,10.967 10.999,10.967 6.056,0 11.001,-4.904 11.001,-10.967 0,-6.086 -4.945,-11.033 -11.001,-11.033 z"
   id="path37" />
			<path
   fill="#002a5c"
   d="m 170.032,242.327 c 6.056,0 11,-4.904 11,-10.967 0,-6.086 -4.944,-11.033 -11,-11.033 -6.078,0 -11,4.947 -11,11.033 0,6.063 4.922,10.967 11,10.967 z"
   id="path39" />
		</g>
	</g>
</g>
</svg>
